<svg width="178" height="58" viewBox="0 0 178 58" fill="none" xmlns="http://www.w3.org/2000/svg">
    <g filter="url(#filter0_d_1_40)">
        <path d="M21.92 41.344C20.0853 41.344 18.6347 40.8747 17.568 39.936C16.5227 38.976 16 37.6747 16 36.032C16 34.368 16.5547 33.0667 17.664 32.128C18.7947 31.168 20.3413 30.688 22.304 30.688H27.2V29.056C27.2 28.096 26.9013 27.3493 26.304 26.816C25.7067 26.2827 24.864 26.016 23.776 26.016C22.816 26.016 22.016 26.2293 21.376 26.656C20.736 27.0613 20.3627 27.6053 20.256 28.288H16.864C17.056 26.7093 17.7813 25.4507 19.04 24.512C20.32 23.5733 21.9307 23.104 23.872 23.104C25.9627 23.104 27.616 23.6373 28.832 24.704C30.048 25.7493 30.656 27.1787 30.656 28.992V41.024H27.296V37.792H26.72L27.296 37.152C27.296 38.432 26.8053 39.456 25.824 40.224C24.8427 40.9707 23.5413 41.344 21.92 41.344ZM22.944 38.688C24.1813 38.688 25.1947 38.3787 25.984 37.76C26.7947 37.12 27.2 36.3093 27.2 35.328V33.024H22.368C21.472 33.024 20.7573 33.2693 20.224 33.76C19.712 34.2507 19.456 34.9227 19.456 35.776C19.456 36.672 19.7653 37.3867 20.384 37.92C21.0027 38.432 21.856 38.688 22.944 38.688ZM42.1955 41.344C40.0835 41.344 38.3982 40.736 37.1395 39.52C35.8808 38.2827 35.2515 36.608 35.2515 34.496V23.424H38.7075V34.496C38.7075 35.712 39.0168 36.6613 39.6355 37.344C40.2542 38.0053 41.1075 38.336 42.1955 38.336C43.3048 38.336 44.1688 38.0053 44.7875 37.344C45.4275 36.6613 45.7475 35.712 45.7475 34.496V23.424H49.2035V34.496C49.2035 36.608 48.5635 38.2827 47.2835 39.52C46.0248 40.736 44.3288 41.344 42.1955 41.344ZM62.695 41.024C61.095 41.024 59.847 40.5867 58.951 39.712C58.055 38.8373 57.607 37.6213 57.607 36.064V26.56H52.743V23.424H57.607V18.464H61.063V23.424H67.943V26.56H61.063V36.064C61.063 37.28 61.6497 37.888 62.823 37.888H67.623V41.024H62.695ZM79.3225 41.312C77.8718 41.312 76.6132 41.0347 75.5465 40.48C74.4798 39.9253 73.6585 39.136 73.0825 38.112C72.5065 37.088 72.2185 35.8827 72.2185 34.496V29.952C72.2185 28.544 72.5065 27.3387 73.0825 26.336C73.6585 25.312 74.4798 24.5227 75.5465 23.968C76.6132 23.4133 77.8718 23.136 79.3225 23.136C80.7732 23.136 82.0318 23.4133 83.0985 23.968C84.1652 24.5227 84.9865 25.312 85.5625 26.336C86.1385 27.3387 86.4265 28.544 86.4265 29.952V34.496C86.4265 35.8827 86.1385 37.088 85.5625 38.112C84.9865 39.136 84.1652 39.9253 83.0985 40.48C82.0318 41.0347 80.7732 41.312 79.3225 41.312ZM79.3225 38.272C80.4958 38.272 81.4025 37.952 82.0425 37.312C82.6825 36.6507 83.0025 35.712 83.0025 34.496V29.952C83.0025 28.7147 82.6825 27.776 82.0425 27.136C81.4025 26.496 80.4958 26.176 79.3225 26.176C78.1705 26.176 77.2638 26.496 76.6025 27.136C75.9625 27.776 75.6425 28.7147 75.6425 29.952V34.496C75.6425 35.712 75.9625 36.6507 76.6025 37.312C77.2638 37.952 78.1705 38.272 79.3225 38.272ZM91.534 41.024V23.424H94.862V26.784H95.694L94.638 28.864C94.638 26.9653 95.054 25.536 95.886 24.576C96.718 23.5947 97.9553 23.104 99.598 23.104C101.475 23.104 102.958 23.6907 104.046 24.864C105.155 26.016 105.71 27.6053 105.71 29.632V30.816H102.158V29.92C102.158 28.6613 101.838 27.7013 101.198 27.04C100.579 26.3573 99.7047 26.016 98.574 26.016C97.4433 26.016 96.558 26.3573 95.918 27.04C95.2993 27.7227 94.99 28.6827 94.99 29.92V41.024H91.534ZM114.658 41.344C112.823 41.344 111.372 40.8747 110.306 39.936C109.26 38.976 108.738 37.6747 108.738 36.032C108.738 34.368 109.292 33.0667 110.402 32.128C111.532 31.168 113.079 30.688 115.042 30.688H119.938V29.056C119.938 28.096 119.639 27.3493 119.042 26.816C118.444 26.2827 117.602 26.016 116.514 26.016C115.554 26.016 114.754 26.2293 114.114 26.656C113.474 27.0613 113.1 27.6053 112.994 28.288H109.602C109.794 26.7093 110.519 25.4507 111.778 24.512C113.058 23.5733 114.668 23.104 116.61 23.104C118.7 23.104 120.354 23.6373 121.57 24.704C122.786 25.7493 123.394 27.1787 123.394 28.992V41.024H120.034V37.792H119.458L120.034 37.152C120.034 38.432 119.543 39.456 118.562 40.224C117.58 40.9707 116.279 41.344 114.658 41.344ZM115.682 38.688C116.919 38.688 117.932 38.3787 118.722 37.76C119.532 37.12 119.938 36.3093 119.938 35.328V33.024H115.106C114.21 33.024 113.495 33.2693 112.962 33.76C112.45 34.2507 112.194 34.9227 112.194 35.776C112.194 36.672 112.503 37.3867 113.122 37.92C113.74 38.432 114.594 38.688 115.682 38.688ZM127.957 41.024V37.888H134.133V26.56H128.757V23.424H137.493V37.888H143.157V41.024H127.957ZM135.477 20.384C134.73 20.384 134.133 20.192 133.685 19.808C133.237 19.4027 133.013 18.8693 133.013 18.208C133.013 17.5253 133.237 16.992 133.685 16.608C134.133 16.2027 134.73 16 135.477 16C136.224 16 136.821 16.2027 137.269 16.608C137.717 16.992 137.941 17.5253 137.941 18.208C137.941 18.8693 137.717 19.4027 137.269 19.808C136.821 20.192 136.224 20.384 135.477 20.384ZM156.041 41.024C154.953 41.024 154.003 40.8107 153.193 40.384C152.382 39.936 151.742 39.3067 151.273 38.496C150.825 37.6853 150.601 36.7467 150.601 35.68V20.8H144.841V17.664H154.057V35.68C154.057 36.3627 154.249 36.9067 154.633 37.312C155.017 37.696 155.539 37.888 156.201 37.888H161.641V41.024H156.041Z" fill="#6E18B3"/>
    </g>
    <defs>
        <filter id="filter0_d_1_40" x="0" y="0" width="177.641" height="57.344" filterUnits="userSpaceOnUse" color-interpolation-filters="sRGB">
            <feFlood flood-opacity="0" result="BackgroundImageFix"/>
            <feColorMatrix in="SourceAlpha" type="matrix" values="0 0 0 0 0 0 0 0 0 0 0 0 0 0 0 0 0 0 127 0" result="hardAlpha"/>
            <feOffset/>
            <feGaussianBlur stdDeviation="8"/>
            <feComposite in2="hardAlpha" operator="out"/>
            <feColorMatrix type="matrix" values="0 0 0 0 0.431373 0 0 0 0 0.0941176 0 0 0 0 0.701961 0 0 0 0.5 0"/>
            <feBlend mode="normal" in2="BackgroundImageFix" result="effect1_dropShadow_1_40"/>
            <feBlend mode="normal" in="SourceGraphic" in2="effect1_dropShadow_1_40" result="shape"/>
        </filter>
    </defs>
</svg>
