<svg width="233" height="77" viewBox="0 0 233 77" fill="none" xmlns="http://www.w3.org/2000/svg">
    <g filter="url(#filter0_d_1_43)">
        <mask id="mask0_1_43" style="mask-type:luminance" maskUnits="userSpaceOnUse" x="16" y="15" width="46" height="46">
            <path d="M16 15.947H61.5V60.8321H16V15.947Z" fill="white"/>
        </mask>
        <g mask="url(#mask0_1_43)">
            <mask id="mask1_1_43" style="mask-type:luminance" maskUnits="userSpaceOnUse" x="16" y="16" width="46" height="45">
                <path d="M57.3134 42.281C57.4178 41.1084 57.2091 40.2345 56.9587 39.609C56.8939 39.4465 56.8217 39.2918 56.744 39.1436C55.0059 35.8262 50.2622 35.9713 48.4894 32.1259C47.9696 30.9987 47.77 29.8286 47.693 29.0763C47.6675 28.8251 47.6559 28.6212 47.6499 28.4802C49.7354 28.5804 52.6491 29.1993 54.9696 31.5321C57.2982 33.8729 57.7719 36.6757 57.8934 37.7084C57.8945 36.4414 57.6926 34.4528 56.5667 32.393C56.065 31.4753 54.0748 28.174 50.0865 27.1963C49.3398 27.0136 48.6427 26.9413 48.0284 26.9292C48.5302 26.8515 49.0399 26.8125 49.5556 26.8125C50.8733 26.8125 52.1528 27.067 53.3573 27.5688C54.5205 28.0539 55.5646 28.7476 56.4612 29.631C57.3576 30.5142 58.0618 31.5431 58.5542 32.6889C59.0634 33.8758 59.3218 35.1361 59.3218 36.4344C59.3218 37.7331 59.0634 38.993 58.5542 40.1804C58.2304 40.9338 57.815 41.6367 57.3134 42.281ZM56.8625 48.1619C56.3708 49.3562 55.6491 50.4275 54.7169 51.346C53.7847 52.2637 52.698 52.9751 51.4858 53.4591C50.7159 53.7665 49.9179 53.9746 49.1012 54.081C50.0159 53.324 50.496 52.5607 50.7678 51.9442C50.8384 51.7837 50.8986 51.6246 50.9499 51.4661C52.1013 47.9091 48.6434 44.7069 50.1496 40.7522C50.591 39.5935 51.2898 38.6268 51.7752 38.0414C51.9374 37.8465 52.0757 37.6936 52.1726 37.5901C53.576 39.1138 55.1918 41.581 55.1581 44.847C55.1248 48.1246 53.4482 50.4367 52.7926 51.2517C53.7025 50.3561 54.9876 48.8096 55.6696 46.5689C55.9736 45.5705 56.9361 41.8493 54.8174 38.3797C54.4207 37.7298 53.9791 37.1937 53.5532 36.7568C53.9638 37.0515 54.3523 37.3786 54.7169 37.7385C55.6491 38.6563 56.3708 39.7276 56.8625 40.9217C57.3367 42.0747 57.5778 43.2923 57.5778 44.5419C57.5778 45.7912 57.3367 47.0091 56.8625 48.1619ZM44.5605 57.9253C43.3561 58.4268 42.0768 58.6814 40.7591 58.6814C39.4413 58.6814 38.1619 58.4268 36.9572 57.9253C36.1922 57.6063 35.4788 57.197 34.825 56.7034C36.0152 56.8057 36.9022 56.6005 37.5368 56.3534C37.7018 56.2896 37.859 56.2189 38.0092 56.1423C41.3761 54.4292 41.2292 49.7556 45.1323 48.009C46.2761 47.4969 47.4638 47.3005 48.2273 47.2246C48.4823 47.1993 48.6895 47.1878 48.8323 47.1827C48.7314 49.2373 48.1025 52.1074 45.7347 54.3935C43.359 56.6879 40.5139 57.1546 39.4657 57.274C40.752 57.2751 42.7709 57.0769 44.8611 55.9677C45.7926 55.4736 49.1438 53.5126 50.1355 49.5832C50.3216 48.8471 50.3946 48.1603 50.4066 47.5551C50.4855 48.0492 50.5251 48.5516 50.5251 49.0597C50.5251 50.3579 50.2667 51.6183 49.7575 52.805C49.2657 53.951 48.5616 54.9803 47.665 55.8637C46.7686 56.7471 45.7238 57.4406 44.5605 57.9253ZM28.8554 56.2586C27.6432 55.7739 26.5561 55.0632 25.6241 54.1448C24.6921 53.227 23.9705 52.1557 23.4787 50.9614C23.1668 50.2033 22.9558 49.4166 22.848 48.612C23.6161 49.5136 24.3909 49.9862 25.0166 50.254C25.1793 50.3234 25.3411 50.3833 25.5024 50.4338C29.1125 51.5682 32.3627 48.1608 36.3763 49.6454C37.5526 50.0805 38.5338 50.7683 39.128 51.2469C39.3258 51.4061 39.481 51.5424 39.5858 51.6378C38.0397 53.0205 35.5353 54.6126 32.2203 54.5798C28.8933 54.5464 26.5469 52.8948 25.7198 52.2487C26.6285 53.1453 28.1985 54.4115 30.4726 55.0832C31.4861 55.3826 35.263 56.3309 38.7844 54.2435C39.4441 53.8527 39.9884 53.4183 40.4316 52.9987C40.1325 53.4028 39.8007 53.7856 39.4361 54.1448C38.5037 55.0632 37.4168 55.7739 36.2045 56.2586C35.0342 56.7262 33.7978 56.9631 32.53 56.9631C31.2619 56.9631 30.0257 56.7262 28.8554 56.2586ZM21.0388 47.197C20.1421 46.3136 19.438 45.2843 18.9461 44.1389C18.4366 42.9516 18.1782 41.6919 18.1782 40.393C18.1782 39.0947 18.4366 37.8344 18.9461 36.6477C19.2696 35.894 19.6848 35.1907 20.1863 34.5464C20.0822 35.7194 20.2907 36.5936 20.5411 37.2183C20.6063 37.3809 20.6781 37.536 20.7555 37.6837C22.4944 41.0011 27.2381 40.8563 29.0106 44.7015C29.5304 45.8287 29.73 46.9992 29.8068 47.7515C29.8325 48.0023 29.8444 48.2061 29.8498 48.3471C27.7644 48.2477 24.8509 47.6287 22.5304 45.296C20.2016 42.9545 19.7281 40.1516 19.6069 39.1189C19.606 40.386 19.8072 42.3753 20.933 44.4344C21.4346 45.3521 23.425 48.654 27.4133 49.6315C28.16 49.8142 28.8573 49.886 29.4716 49.8982C28.9698 49.9758 28.4601 50.0154 27.9444 50.0154C26.6265 50.0154 25.3475 49.7608 24.1427 49.2586C22.9795 48.7741 21.9352 48.0804 21.0388 47.197ZM20.6377 28.6655C21.1292 27.4711 21.8509 26.3998 22.7828 25.4821C23.7148 24.5637 24.802 23.8527 26.0142 23.3682C26.7837 23.0609 27.5819 22.8528 28.399 22.747C27.4839 23.5034 27.0038 24.2667 26.7322 24.8831C26.6616 25.0436 26.6012 25.2033 26.5499 25.362C25.3985 28.9189 28.8568 32.1211 27.3504 36.0752C26.9088 37.2338 26.2102 38.2005 25.7246 38.786C25.5626 38.9815 25.4245 39.1338 25.3274 39.2373C23.9242 37.7143 22.3084 35.2464 22.3419 31.9804C22.3752 28.7027 24.0521 26.3913 24.7076 25.5764C23.7975 26.4717 22.5124 28.0182 21.8304 30.2585C21.5264 31.2573 20.5641 34.9781 22.6828 38.4477C23.0795 39.0976 23.5207 39.6344 23.9465 40.0706C23.5362 39.7763 23.1477 39.4487 22.7828 39.0895C21.8509 38.1711 21.1292 37.0998 20.6377 35.9057C20.1631 34.7527 19.9225 33.535 19.9225 32.2855C19.9225 31.0366 20.1631 29.8182 20.6377 28.6655ZM32.9392 18.9027C34.1437 18.4005 35.4229 18.146 36.7409 18.146C38.0589 18.146 39.3379 18.4005 40.5426 18.9027C41.308 19.2211 42.0212 19.6303 42.6752 20.1247C41.4846 20.0216 40.598 20.2275 39.9634 20.474C39.7982 20.5384 39.6407 20.6092 39.4908 20.6855C36.1239 22.3982 36.2711 27.0718 32.3677 28.8183C31.2236 29.3304 30.036 29.5269 29.2724 29.6027C29.0179 29.6281 28.8105 29.6395 28.6677 29.6454C28.7688 27.5908 29.3973 24.7199 31.7648 22.4339C34.141 20.1395 36.9859 19.6728 38.0343 19.5533C36.7482 19.5527 34.7293 19.7511 32.6389 20.8601C31.7074 21.3545 28.3564 23.3155 27.3643 27.2446C27.1786 27.9803 27.1054 28.667 27.0931 29.2723C27.0145 28.7782 26.9746 28.2757 26.9746 27.7677C26.9746 26.4694 27.233 25.2091 27.7425 24.0224C28.2345 22.8763 28.9386 21.8477 29.835 20.9643C30.7317 20.0809 31.776 19.3872 32.9392 18.9027ZM48.0583 38.4138C48.0583 43.4787 43.8909 47.5843 38.75 47.5843C33.6091 47.5843 29.442 43.4787 29.442 38.4138C29.442 33.3487 33.6091 29.2431 38.75 29.2431C43.8909 29.2431 48.0583 33.3487 48.0583 38.4138ZM48.6446 20.569C49.8566 21.0534 50.9439 21.7642 51.8761 22.6826C52.8076 23.601 53.5293 24.6717 54.021 25.866C54.3332 26.6246 54.5444 27.4107 54.6522 28.216C53.8841 27.3142 53.1093 26.8412 52.4834 26.5734C52.3207 26.504 52.1591 26.4447 51.9976 26.3942C48.3873 25.2596 45.1375 28.667 41.1237 27.1827C39.9477 26.7476 38.9665 26.059 38.372 25.5809C38.174 25.4212 38.019 25.285 37.914 25.1896C39.4605 23.8073 41.9647 22.2154 45.2799 22.2482C48.6065 22.281 50.9533 23.9333 51.78 24.5787C50.8717 23.6821 49.3013 22.4159 47.0274 21.7442C46.0136 21.4447 42.2372 20.4971 38.7154 22.5838C38.0559 22.9747 37.5113 23.4098 37.0681 23.8291C37.3673 23.4246 37.6995 23.0418 38.0641 22.6826C38.9961 21.7642 40.0835 21.0534 41.2957 20.569C42.4658 20.1016 43.702 19.8643 44.97 19.8643C46.2383 19.8643 47.4743 20.1016 48.6446 20.569ZM38.75 16C26.1855 16 16 26.035 16 38.4138C16 50.7923 26.1855 60.8276 38.75 60.8276C51.3145 60.8276 61.5 50.7923 61.5 38.4138C61.5 26.035 51.3145 16 38.75 16Z" fill="white"/>
            </mask>
            <g mask="url(#mask1_1_43)">
                <mask id="mask2_1_43" style="mask-type:luminance" maskUnits="userSpaceOnUse" x="16" y="16" width="46" height="45">
                    <path d="M57.3134 42.281C57.4178 41.1084 57.2091 40.2345 56.9587 39.609C56.8939 39.4465 56.8217 39.2918 56.744 39.1436C55.0059 35.8262 50.2622 35.9713 48.4894 32.1259C47.9696 30.9987 47.77 29.8286 47.693 29.0763C47.6675 28.8251 47.6559 28.6212 47.6499 28.4802C49.7354 28.5804 52.6491 29.1993 54.9696 31.5321C57.2982 33.8729 57.7719 36.6757 57.8934 37.7084C57.8945 36.4414 57.6926 34.4528 56.5667 32.393C56.065 31.4753 54.0748 28.174 50.0865 27.1963C49.3398 27.0136 48.6427 26.9413 48.0284 26.9292C48.5302 26.8515 49.0399 26.8125 49.5556 26.8125C50.8733 26.8125 52.1528 27.067 53.3573 27.5688C54.5205 28.0539 55.5646 28.7476 56.4612 29.631C57.3576 30.5142 58.0618 31.5431 58.5542 32.6889C59.0634 33.8758 59.3218 35.1361 59.3218 36.4344C59.3218 37.7331 59.0634 38.993 58.5542 40.1804C58.2304 40.9338 57.815 41.6367 57.3134 42.281ZM56.8625 48.1619C56.3708 49.3562 55.6491 50.4275 54.7169 51.346C53.7847 52.2637 52.698 52.9751 51.4858 53.4591C50.7159 53.7665 49.9179 53.9746 49.1012 54.081C50.0159 53.324 50.496 52.5607 50.7678 51.9442C50.8384 51.7837 50.8986 51.6246 50.9499 51.4661C52.1013 47.9091 48.6434 44.7069 50.1496 40.7522C50.591 39.5935 51.2898 38.6268 51.7752 38.0414C51.9374 37.8465 52.0757 37.6936 52.1726 37.5901C53.576 39.1138 55.1918 41.581 55.1581 44.847C55.1248 48.1246 53.4482 50.4367 52.7926 51.2517C53.7025 50.3561 54.9876 48.8096 55.6696 46.5689C55.9736 45.5705 56.9361 41.8493 54.8174 38.3797C54.4207 37.7298 53.9791 37.1937 53.5532 36.7568C53.9638 37.0515 54.3523 37.3786 54.7169 37.7385C55.6491 38.6563 56.3708 39.7276 56.8625 40.9217C57.3367 42.0747 57.5778 43.2923 57.5778 44.5419C57.5778 45.7912 57.3367 47.0091 56.8625 48.1619ZM44.5605 57.9253C43.3561 58.4268 42.0768 58.6814 40.7591 58.6814C39.4413 58.6814 38.1619 58.4268 36.9572 57.9253C36.1922 57.6063 35.4788 57.197 34.825 56.7034C36.0152 56.8057 36.9022 56.6005 37.5368 56.3534C37.7018 56.2896 37.859 56.2189 38.0092 56.1423C41.3761 54.4292 41.2292 49.7556 45.1323 48.009C46.2761 47.4969 47.4638 47.3005 48.2273 47.2246C48.4823 47.1993 48.6895 47.1878 48.8323 47.1827C48.7314 49.2373 48.1025 52.1074 45.7347 54.3935C43.359 56.6879 40.5139 57.1546 39.4657 57.274C40.752 57.2751 42.7709 57.0769 44.8611 55.9677C45.7926 55.4736 49.1438 53.5126 50.1355 49.5832C50.3216 48.8471 50.3946 48.1603 50.4066 47.5551C50.4855 48.0492 50.5251 48.5516 50.5251 49.0597C50.5251 50.3579 50.2667 51.6183 49.7575 52.805C49.2657 53.951 48.5616 54.9803 47.665 55.8637C46.7686 56.7471 45.7238 57.4406 44.5605 57.9253ZM28.8554 56.2586C27.6432 55.7739 26.5561 55.0632 25.6241 54.1448C24.6921 53.227 23.9705 52.1557 23.4787 50.9614C23.1668 50.2033 22.9558 49.4166 22.848 48.612C23.6161 49.5136 24.3909 49.9862 25.0166 50.254C25.1793 50.3234 25.3411 50.3833 25.5024 50.4338C29.1125 51.5682 32.3627 48.1608 36.3763 49.6454C37.5526 50.0805 38.5338 50.7683 39.128 51.2469C39.3258 51.4061 39.481 51.5424 39.5858 51.6378C38.0397 53.0205 35.5353 54.6126 32.2203 54.5798C28.8933 54.5464 26.5469 52.8948 25.7198 52.2487C26.6285 53.1453 28.1985 54.4115 30.4726 55.0832C31.4861 55.3826 35.263 56.3309 38.7844 54.2435C39.4441 53.8527 39.9884 53.4183 40.4316 52.9987C40.1325 53.4028 39.8007 53.7856 39.4361 54.1448C38.5037 55.0632 37.4168 55.7739 36.2045 56.2586C35.0342 56.7262 33.7978 56.9631 32.53 56.9631C31.2619 56.9631 30.0257 56.7262 28.8554 56.2586ZM21.0388 47.197C20.1421 46.3136 19.438 45.2843 18.9461 44.1389C18.4366 42.9516 18.1782 41.6919 18.1782 40.393C18.1782 39.0947 18.4366 37.8344 18.9461 36.6477C19.2696 35.894 19.6848 35.1907 20.1863 34.5464C20.0822 35.7194 20.2907 36.5936 20.5411 37.2183C20.6063 37.3809 20.6781 37.536 20.7555 37.6837C22.4944 41.0011 27.2381 40.8563 29.0106 44.7015C29.5304 45.8287 29.73 46.9992 29.8068 47.7515C29.8325 48.0023 29.8444 48.2061 29.8498 48.3471C27.7644 48.2477 24.8509 47.6287 22.5304 45.296C20.2016 42.9545 19.7281 40.1516 19.6069 39.1189C19.606 40.386 19.8072 42.3753 20.933 44.4344C21.4346 45.3521 23.425 48.654 27.4133 49.6315C28.16 49.8142 28.8573 49.886 29.4716 49.8982C28.9698 49.9758 28.4601 50.0154 27.9444 50.0154C26.6265 50.0154 25.3475 49.7608 24.1427 49.2586C22.9795 48.7741 21.9352 48.0804 21.0388 47.197ZM20.6377 28.6655C21.1292 27.4711 21.8509 26.3998 22.7828 25.4821C23.7148 24.5637 24.802 23.8527 26.0142 23.3682C26.7837 23.0609 27.5819 22.8528 28.399 22.747C27.4839 23.5034 27.0038 24.2667 26.7322 24.8831C26.6616 25.0436 26.6012 25.2033 26.5499 25.362C25.3985 28.9189 28.8568 32.1211 27.3504 36.0752C26.9088 37.2338 26.2102 38.2005 25.7246 38.786C25.5626 38.9815 25.4245 39.1338 25.3274 39.2373C23.9242 37.7143 22.3084 35.2464 22.3419 31.9804C22.3752 28.7027 24.0521 26.3913 24.7076 25.5764C23.7975 26.4717 22.5124 28.0182 21.8304 30.2585C21.5264 31.2573 20.5641 34.9781 22.6828 38.4477C23.0795 39.0976 23.5207 39.6344 23.9465 40.0706C23.5362 39.7763 23.1477 39.4487 22.7828 39.0895C21.8509 38.1711 21.1292 37.0998 20.6377 35.9057C20.1631 34.7527 19.9225 33.535 19.9225 32.2855C19.9225 31.0366 20.1631 29.8182 20.6377 28.6655ZM32.9392 18.9027C34.1437 18.4005 35.4229 18.146 36.7409 18.146C38.0589 18.146 39.3379 18.4005 40.5426 18.9027C41.308 19.2211 42.0212 19.6303 42.6752 20.1247C41.4846 20.0216 40.598 20.2275 39.9634 20.474C39.7982 20.5384 39.6407 20.6092 39.4908 20.6855C36.1239 22.3982 36.2711 27.0718 32.3677 28.8183C31.2236 29.3304 30.036 29.5269 29.2724 29.6027C29.0179 29.6281 28.8105 29.6395 28.6677 29.6454C28.7688 27.5908 29.3973 24.7199 31.7648 22.4339C34.141 20.1395 36.9859 19.6728 38.0343 19.5533C36.7482 19.5527 34.7293 19.7511 32.6389 20.8601C31.7074 21.3545 28.3564 23.3155 27.3643 27.2446C27.1786 27.9803 27.1054 28.667 27.0931 29.2723C27.0145 28.7782 26.9746 28.2757 26.9746 27.7677C26.9746 26.4694 27.233 25.2091 27.7425 24.0224C28.2345 22.8763 28.9386 21.8477 29.835 20.9643C30.7317 20.0809 31.776 19.3872 32.9392 18.9027ZM48.0583 38.4138C48.0583 43.4787 43.8909 47.5843 38.75 47.5843C33.6091 47.5843 29.442 43.4787 29.442 38.4138C29.442 33.3487 33.6091 29.2431 38.75 29.2431C43.8909 29.2431 48.0583 33.3487 48.0583 38.4138ZM48.6446 20.569C49.8566 21.0534 50.9439 21.7642 51.8761 22.6826C52.8076 23.601 53.5293 24.6717 54.021 25.866C54.3332 26.6246 54.5444 27.4107 54.6522 28.216C53.8841 27.3142 53.1093 26.8412 52.4834 26.5734C52.3207 26.504 52.1591 26.4447 51.9976 26.3942C48.3873 25.2596 45.1375 28.667 41.1237 27.1827C39.9477 26.7476 38.9665 26.059 38.372 25.5809C38.174 25.4212 38.019 25.285 37.914 25.1896C39.4605 23.8073 41.9647 22.2154 45.2799 22.2482C48.6065 22.281 50.9533 23.9333 51.78 24.5787C50.8717 23.6821 49.3013 22.4159 47.0274 21.7442C46.0136 21.4447 42.2372 20.4971 38.7154 22.5838C38.0559 22.9747 37.5113 23.4098 37.0681 23.8291C37.3673 23.4246 37.6995 23.0418 38.0641 22.6826C38.9961 21.7642 40.0835 21.0534 41.2957 20.569C42.4658 20.1016 43.702 19.8643 44.97 19.8643C46.2383 19.8643 47.4743 20.1016 48.6446 20.569ZM38.75 16C26.1855 16 16 26.035 16 38.4138C16 50.7923 26.1855 60.8276 38.75 60.8276C51.3145 60.8276 61.5 50.7923 61.5 38.4138C61.5 26.035 51.3145 16 38.75 16Z" fill="white"/>
                </mask>
                <g mask="url(#mask2_1_43)">
                    <path d="M83.7897 33.9277L34.1966 -5.96031L-6.28971 42.8997L43.3034 82.7877L83.7897 33.9277Z" fill="url(#paint0_linear_1_43)"/>
                </g>
            </g>
        </g>
    </g>
    <g filter="url(#filter1_d_1_43)">
        <path d="M76.84 46.267C75.0053 46.267 73.5547 45.7977 72.488 44.859C71.4427 43.899 70.92 42.5977 70.92 40.955C70.92 39.291 71.4747 37.9897 72.584 37.051C73.7147 36.091 75.2613 35.611 77.224 35.611H82.12V33.979C82.12 33.019 81.8213 32.2724 81.224 31.739C80.6267 31.2057 79.784 30.939 78.696 30.939C77.736 30.939 76.936 31.1524 76.296 31.579C75.656 31.9844 75.2827 32.5284 75.176 33.211H71.784C71.976 31.6324 72.7013 30.3737 73.96 29.435C75.24 28.4964 76.8507 28.027 78.792 28.027C80.8827 28.027 82.536 28.5604 83.752 29.627C84.968 30.6724 85.576 32.1017 85.576 33.915V45.947H82.216V42.715H81.64L82.216 42.075C82.216 43.355 81.7253 44.379 80.744 45.147C79.7627 45.8937 78.4613 46.267 76.84 46.267ZM77.864 43.611C79.1013 43.611 80.1147 43.3017 80.904 42.683C81.7147 42.043 82.12 41.2324 82.12 40.251V37.947H77.288C76.392 37.947 75.6773 38.1924 75.144 38.683C74.632 39.1737 74.376 39.8457 74.376 40.699C74.376 41.595 74.6853 42.3097 75.304 42.843C75.9227 43.355 76.776 43.611 77.864 43.611ZM97.1155 46.267C95.0035 46.267 93.3182 45.659 92.0595 44.443C90.8008 43.2057 90.1715 41.531 90.1715 39.419V28.347H93.6275V39.419C93.6275 40.635 93.9368 41.5844 94.5555 42.267C95.1742 42.9284 96.0275 43.259 97.1155 43.259C98.2248 43.259 99.0888 42.9284 99.7075 42.267C100.348 41.5844 100.668 40.635 100.668 39.419V28.347H104.124V39.419C104.124 41.531 103.484 43.2057 102.204 44.443C100.945 45.659 99.2488 46.267 97.1155 46.267ZM117.615 45.947C116.015 45.947 114.767 45.5097 113.871 44.635C112.975 43.7604 112.527 42.5444 112.527 40.987V31.483H107.663V28.347H112.527V23.387H115.983V28.347H122.863V31.483H115.983V40.987C115.983 42.203 116.57 42.811 117.743 42.811H122.543V45.947H117.615ZM134.243 46.235C132.792 46.235 131.533 45.9577 130.467 45.403C129.4 44.8484 128.579 44.059 128.003 43.035C127.427 42.011 127.139 40.8057 127.139 39.419V34.875C127.139 33.467 127.427 32.2617 128.003 31.259C128.579 30.235 129.4 29.4457 130.467 28.891C131.533 28.3364 132.792 28.059 134.243 28.059C135.693 28.059 136.952 28.3364 138.019 28.891C139.085 29.4457 139.907 30.235 140.483 31.259C141.059 32.2617 141.347 33.467 141.347 34.875V39.419C141.347 40.8057 141.059 42.011 140.483 43.035C139.907 44.059 139.085 44.8484 138.019 45.403C136.952 45.9577 135.693 46.235 134.243 46.235ZM134.243 43.195C135.416 43.195 136.323 42.875 136.963 42.235C137.603 41.5737 137.923 40.635 137.923 39.419V34.875C137.923 33.6377 137.603 32.699 136.963 32.059C136.323 31.419 135.416 31.099 134.243 31.099C133.091 31.099 132.184 31.419 131.523 32.059C130.883 32.699 130.563 33.6377 130.563 34.875V39.419C130.563 40.635 130.883 41.5737 131.523 42.235C132.184 42.875 133.091 43.195 134.243 43.195ZM146.454 45.947V28.347H149.782V31.707H150.614L149.558 33.787C149.558 31.8884 149.974 30.459 150.806 29.499C151.638 28.5177 152.875 28.027 154.518 28.027C156.395 28.027 157.878 28.6137 158.966 29.787C160.075 30.939 160.63 32.5284 160.63 34.555V35.739H157.078V34.843C157.078 33.5844 156.758 32.6244 156.118 31.963C155.499 31.2804 154.625 30.939 153.494 30.939C152.363 30.939 151.478 31.2804 150.838 31.963C150.219 32.6457 149.91 33.6057 149.91 34.843V45.947H146.454ZM169.578 46.267C167.743 46.267 166.292 45.7977 165.226 44.859C164.18 43.899 163.658 42.5977 163.658 40.955C163.658 39.291 164.212 37.9897 165.322 37.051C166.452 36.091 167.999 35.611 169.962 35.611H174.858V33.979C174.858 33.019 174.559 32.2724 173.962 31.739C173.364 31.2057 172.522 30.939 171.434 30.939C170.474 30.939 169.674 31.1524 169.034 31.579C168.394 31.9844 168.02 32.5284 167.914 33.211H164.522C164.714 31.6324 165.439 30.3737 166.698 29.435C167.978 28.4964 169.588 28.027 171.53 28.027C173.62 28.027 175.274 28.5604 176.49 29.627C177.706 30.6724 178.314 32.1017 178.314 33.915V45.947H174.954V42.715H174.378L174.954 42.075C174.954 43.355 174.463 44.379 173.482 45.147C172.5 45.8937 171.199 46.267 169.578 46.267ZM170.602 43.611C171.839 43.611 172.852 43.3017 173.642 42.683C174.452 42.043 174.858 41.2324 174.858 40.251V37.947H170.026C169.13 37.947 168.415 38.1924 167.882 38.683C167.37 39.1737 167.114 39.8457 167.114 40.699C167.114 41.595 167.423 42.3097 168.042 42.843C168.66 43.355 169.514 43.611 170.602 43.611ZM182.877 45.947V42.811H189.053V31.483H183.677V28.347H192.413V42.811H198.077V45.947H182.877ZM190.397 25.307C189.65 25.307 189.053 25.115 188.605 24.731C188.157 24.3257 187.933 23.7924 187.933 23.131C187.933 22.4484 188.157 21.915 188.605 21.531C189.053 21.1257 189.65 20.923 190.397 20.923C191.144 20.923 191.741 21.1257 192.189 21.531C192.637 21.915 192.861 22.4484 192.861 23.131C192.861 23.7924 192.637 24.3257 192.189 24.731C191.741 25.115 191.144 25.307 190.397 25.307ZM210.961 45.947C209.873 45.947 208.923 45.7337 208.113 45.307C207.302 44.859 206.662 44.2297 206.193 43.419C205.745 42.6084 205.521 41.6697 205.521 40.603V25.723H199.761V22.587H208.977V40.603C208.977 41.2857 209.169 41.8297 209.553 42.235C209.937 42.619 210.459 42.811 211.121 42.811H216.561V45.947H210.961Z" fill="#6E18B3"/>
    </g>
    <defs>
        <filter id="filter0_d_1_43" x="0" y="1.90735e-06" width="77.5" height="76.8276" filterUnits="userSpaceOnUse" color-interpolation-filters="sRGB">
            <feFlood flood-opacity="0" result="BackgroundImageFix"/>
            <feColorMatrix in="SourceAlpha" type="matrix" values="0 0 0 0 0 0 0 0 0 0 0 0 0 0 0 0 0 0 127 0" result="hardAlpha"/>
            <feOffset/>
            <feGaussianBlur stdDeviation="8"/>
            <feComposite in2="hardAlpha" operator="out"/>
            <feColorMatrix type="matrix" values="0 0 0 0 0.431373 0 0 0 0 0.0941176 0 0 0 0 0.701961 0 0 0 0.5 0"/>
            <feBlend mode="normal" in2="BackgroundImageFix" result="effect1_dropShadow_1_43"/>
            <feBlend mode="normal" in="SourceGraphic" in2="effect1_dropShadow_1_43" result="shape"/>
        </filter>
        <filter id="filter1_d_1_43" x="54.92" y="4.92302" width="177.641" height="57.344" filterUnits="userSpaceOnUse" color-interpolation-filters="sRGB">
            <feFlood flood-opacity="0" result="BackgroundImageFix"/>
            <feColorMatrix in="SourceAlpha" type="matrix" values="0 0 0 0 0 0 0 0 0 0 0 0 0 0 0 0 0 0 127 0" result="hardAlpha"/>
            <feOffset/>
            <feGaussianBlur stdDeviation="8"/>
            <feComposite in2="hardAlpha" operator="out"/>
            <feColorMatrix type="matrix" values="0 0 0 0 0.431373 0 0 0 0 0.0941176 0 0 0 0 0.701961 0 0 0 0.5 0"/>
            <feBlend mode="normal" in2="BackgroundImageFix" result="effect1_dropShadow_1_43"/>
            <feBlend mode="normal" in="SourceGraphic" in2="effect1_dropShadow_1_43" result="shape"/>
        </filter>
        <linearGradient id="paint0_linear_1_43" x1="58.9931" y1="13.9836" x2="19.228" y2="63.4238" gradientUnits="userSpaceOnUse">
            <stop stop-color="#8333D2"/>
            <stop offset="0.125" stop-color="#8333D2"/>
            <stop offset="0.140625" stop-color="#8333D2"/>
            <stop offset="0.144531" stop-color="#8333D2"/>
            <stop offset="0.148438" stop-color="#8333D2"/>
            <stop offset="0.152344" stop-color="#8333D2"/>
            <stop offset="0.15625" stop-color="#8333D2"/>
            <stop offset="0.160156" stop-color="#8334D1"/>
            <stop offset="0.164062" stop-color="#8234D1"/>
            <stop offset="0.167969" stop-color="#8234D1"/>
            <stop offset="0.171875" stop-color="#8234D1"/>
            <stop offset="0.175781" stop-color="#8234D0"/>
            <stop offset="0.179687" stop-color="#8234D0"/>
            <stop offset="0.183594" stop-color="#8235D0"/>
            <stop offset="0.1875" stop-color="#8235CF"/>
            <stop offset="0.191406" stop-color="#8235CF"/>
            <stop offset="0.195312" stop-color="#8135CF"/>
            <stop offset="0.199219" stop-color="#8135CF"/>
            <stop offset="0.203125" stop-color="#8135CE"/>
            <stop offset="0.207031" stop-color="#8135CE"/>
            <stop offset="0.210938" stop-color="#8136CE"/>
            <stop offset="0.214844" stop-color="#8136CE"/>
            <stop offset="0.21875" stop-color="#8136CD"/>
            <stop offset="0.222656" stop-color="#8136CD"/>
            <stop offset="0.226562" stop-color="#8136CD"/>
            <stop offset="0.230469" stop-color="#8036CC"/>
            <stop offset="0.234375" stop-color="#8037CC"/>
            <stop offset="0.238281" stop-color="#8037CC"/>
            <stop offset="0.242188" stop-color="#8037CC"/>
            <stop offset="0.246094" stop-color="#8037CB"/>
            <stop offset="0.25" stop-color="#8037CB"/>
            <stop offset="0.253906" stop-color="#8037CB"/>
            <stop offset="0.257812" stop-color="#8037CB"/>
            <stop offset="0.261719" stop-color="#7F38CA"/>
            <stop offset="0.265625" stop-color="#7F38CA"/>
            <stop offset="0.269531" stop-color="#7F38CA"/>
            <stop offset="0.273438" stop-color="#7F38CA"/>
            <stop offset="0.277344" stop-color="#7F38C9"/>
            <stop offset="0.28125" stop-color="#7F38C9"/>
            <stop offset="0.285156" stop-color="#7F38C9"/>
            <stop offset="0.289062" stop-color="#7F39C9"/>
            <stop offset="0.292969" stop-color="#7F39C8"/>
            <stop offset="0.296875" stop-color="#7E39C8"/>
            <stop offset="0.300781" stop-color="#7E39C8"/>
            <stop offset="0.304688" stop-color="#7E39C8"/>
            <stop offset="0.308594" stop-color="#7E39C7"/>
            <stop offset="0.3125" stop-color="#7E3AC7"/>
            <stop offset="0.316406" stop-color="#7E3AC7"/>
            <stop offset="0.320312" stop-color="#7E3AC7"/>
            <stop offset="0.324219" stop-color="#7E3AC6"/>
            <stop offset="0.328125" stop-color="#7E3AC6"/>
            <stop offset="0.332031" stop-color="#7D3AC6"/>
            <stop offset="0.335938" stop-color="#7D3AC5"/>
            <stop offset="0.339844" stop-color="#7D3BC5"/>
            <stop offset="0.34375" stop-color="#7D3BC5"/>
            <stop offset="0.347656" stop-color="#7D3BC5"/>
            <stop offset="0.351562" stop-color="#7D3BC4"/>
            <stop offset="0.355469" stop-color="#7D3BC4"/>
            <stop offset="0.359375" stop-color="#7D3BC4"/>
            <stop offset="0.363281" stop-color="#7D3BC4"/>
            <stop offset="0.367187" stop-color="#7C3BC3"/>
            <stop offset="0.371094" stop-color="#7C3BC3"/>
            <stop offset="0.375" stop-color="#7C3AC3"/>
            <stop offset="0.378906" stop-color="#7C3AC3"/>
            <stop offset="0.382812" stop-color="#7C39C2"/>
            <stop offset="0.386719" stop-color="#7B39C2"/>
            <stop offset="0.390625" stop-color="#7B38C2"/>
            <stop offset="0.394531" stop-color="#7B38C2"/>
            <stop offset="0.398437" stop-color="#7B37C1"/>
            <stop offset="0.402344" stop-color="#7B37C1"/>
            <stop offset="0.40625" stop-color="#7A36C1"/>
            <stop offset="0.410156" stop-color="#7A36C1"/>
            <stop offset="0.414062" stop-color="#7A35C0"/>
            <stop offset="0.417969" stop-color="#7A35C0"/>
            <stop offset="0.421875" stop-color="#7A34C0"/>
            <stop offset="0.425781" stop-color="#7934C0"/>
            <stop offset="0.429688" stop-color="#7933BF"/>
            <stop offset="0.433594" stop-color="#7933BF"/>
            <stop offset="0.4375" stop-color="#7932BF"/>
            <stop offset="0.441406" stop-color="#7932BF"/>
            <stop offset="0.445312" stop-color="#7831BF"/>
            <stop offset="0.449219" stop-color="#7831BE"/>
            <stop offset="0.453125" stop-color="#7830BE"/>
            <stop offset="0.457031" stop-color="#7830BE"/>
            <stop offset="0.460938" stop-color="#782FBE"/>
            <stop offset="0.464844" stop-color="#772FBD"/>
            <stop offset="0.46875" stop-color="#772EBD"/>
            <stop offset="0.472656" stop-color="#772EBD"/>
            <stop offset="0.476562" stop-color="#772DBD"/>
            <stop offset="0.480469" stop-color="#772DBC"/>
            <stop offset="0.484375" stop-color="#762CBC"/>
            <stop offset="0.488281" stop-color="#762CBC"/>
            <stop offset="0.492188" stop-color="#762BBC"/>
            <stop offset="0.496094" stop-color="#762BBB"/>
            <stop offset="0.5" stop-color="#762ABB"/>
            <stop offset="0.503906" stop-color="#752ABB"/>
            <stop offset="0.507812" stop-color="#7529BB"/>
            <stop offset="0.511719" stop-color="#7529BA"/>
            <stop offset="0.515625" stop-color="#7529BA"/>
            <stop offset="0.519531" stop-color="#7528BA"/>
            <stop offset="0.523438" stop-color="#7428BA"/>
            <stop offset="0.527344" stop-color="#7427BA"/>
            <stop offset="0.53125" stop-color="#7427B9"/>
            <stop offset="0.535156" stop-color="#7426B9"/>
            <stop offset="0.539062" stop-color="#7426B9"/>
            <stop offset="0.542969" stop-color="#7325B9"/>
            <stop offset="0.546875" stop-color="#7325B8"/>
            <stop offset="0.550781" stop-color="#7324B8"/>
            <stop offset="0.554688" stop-color="#7324B8"/>
            <stop offset="0.558594" stop-color="#7323B8"/>
            <stop offset="0.5625" stop-color="#7323B7"/>
            <stop offset="0.566406" stop-color="#7222B7"/>
            <stop offset="0.570312" stop-color="#7222B7"/>
            <stop offset="0.574219" stop-color="#7221B7"/>
            <stop offset="0.578125" stop-color="#7221B7"/>
            <stop offset="0.582031" stop-color="#7220B6"/>
            <stop offset="0.585938" stop-color="#7120B6"/>
            <stop offset="0.589844" stop-color="#7120B6"/>
            <stop offset="0.59375" stop-color="#711FB6"/>
            <stop offset="0.597656" stop-color="#711FB5"/>
            <stop offset="0.601562" stop-color="#711EB5"/>
            <stop offset="0.605469" stop-color="#701EB5"/>
            <stop offset="0.609375" stop-color="#701DB5"/>
            <stop offset="0.613281" stop-color="#701DB4"/>
            <stop offset="0.617188" stop-color="#701CB4"/>
            <stop offset="0.621094" stop-color="#701CB4"/>
            <stop offset="0.625" stop-color="#701BB4"/>
            <stop offset="0.628906" stop-color="#6F1BB4"/>
            <stop offset="0.632812" stop-color="#6F1BB3"/>
            <stop offset="0.636719" stop-color="#6F1AB3"/>
            <stop offset="0.640625" stop-color="#6F1AB3"/>
            <stop offset="0.644531" stop-color="#6F19B3"/>
            <stop offset="0.648438" stop-color="#6E19B3"/>
            <stop offset="0.652344" stop-color="#6E18B2"/>
            <stop offset="0.65625" stop-color="#6E18B2"/>
            <stop offset="0.660156" stop-color="#6E17B2"/>
            <stop offset="0.664062" stop-color="#6E17B2"/>
            <stop offset="0.667969" stop-color="#6E17B1"/>
            <stop offset="0.671875" stop-color="#6D16B1"/>
            <stop offset="0.675781" stop-color="#6D16B1"/>
            <stop offset="0.679688" stop-color="#6D15B1"/>
            <stop offset="0.683594" stop-color="#6D15B1"/>
            <stop offset="0.6875" stop-color="#6D14B0"/>
            <stop offset="0.691406" stop-color="#6D14B0"/>
            <stop offset="0.695313" stop-color="#6C13B0"/>
            <stop offset="0.699219" stop-color="#6C13B0"/>
            <stop offset="0.703125" stop-color="#6C13AF"/>
            <stop offset="0.707031" stop-color="#6C12AF"/>
            <stop offset="0.710938" stop-color="#6C12AF"/>
            <stop offset="0.714844" stop-color="#6B11AF"/>
            <stop offset="0.71875" stop-color="#6B11AF"/>
            <stop offset="0.722656" stop-color="#6B10AE"/>
            <stop offset="0.726563" stop-color="#6B10AE"/>
            <stop offset="0.730469" stop-color="#6B10AE"/>
            <stop offset="0.734375" stop-color="#6B0FAE"/>
            <stop offset="0.738281" stop-color="#6A0FAE"/>
            <stop offset="0.742188" stop-color="#6A0EAD"/>
            <stop offset="0.746094" stop-color="#6A0EAD"/>
            <stop offset="0.75" stop-color="#6A0EAD"/>
            <stop offset="0.753906" stop-color="#6A0DAD"/>
            <stop offset="0.757812" stop-color="#6A0DAD"/>
            <stop offset="0.761719" stop-color="#690CAC"/>
            <stop offset="0.765625" stop-color="#690CAB"/>
            <stop offset="0.769531" stop-color="#680CAA"/>
            <stop offset="0.773437" stop-color="#670CA9"/>
            <stop offset="0.777344" stop-color="#670CA8"/>
            <stop offset="0.78125" stop-color="#660CA7"/>
            <stop offset="0.785156" stop-color="#660CA6"/>
            <stop offset="0.789062" stop-color="#650CA6"/>
            <stop offset="0.792969" stop-color="#650CA5"/>
            <stop offset="0.796875" stop-color="#640CA4"/>
            <stop offset="0.800781" stop-color="#640CA3"/>
            <stop offset="0.804687" stop-color="#630CA2"/>
            <stop offset="0.808594" stop-color="#620CA1"/>
            <stop offset="0.8125" stop-color="#620CA0"/>
            <stop offset="0.816406" stop-color="#610C9F"/>
            <stop offset="0.820312" stop-color="#610B9E"/>
            <stop offset="0.824219" stop-color="#600B9D"/>
            <stop offset="0.828125" stop-color="#600B9D"/>
            <stop offset="0.832031" stop-color="#5F0B9C"/>
            <stop offset="0.835938" stop-color="#5F0B9B"/>
            <stop offset="0.839844" stop-color="#5E0B9A"/>
            <stop offset="0.84375" stop-color="#5E0B99"/>
            <stop offset="0.847656" stop-color="#5D0B98"/>
            <stop offset="0.851562" stop-color="#5D0B97"/>
            <stop offset="0.855469" stop-color="#5C0B97"/>
            <stop offset="0.859375" stop-color="#5C0B96"/>
            <stop offset="0.875" stop-color="#5C0B96"/>
            <stop offset="1" stop-color="#5C0B96"/>
        </linearGradient>
    </defs>
</svg>
